<svg xmlns="http://www.w3.org/2000/svg" xmlns:xlink="http://www.w3.org/1999/xlink" width="220" zoomAndPan="magnify" viewBox="0 0 165 165.000002" height="220" preserveAspectRatio="xMidYMid meet" version="1.0"><defs><clipPath id="07301ae65e"><path d="M 67 8.3125 L 98 8.3125 L 98 39 L 67 39 Z M 67 8.3125 " clip-rule="nonzero"/></clipPath><clipPath id="d0b4a87ada"><path d="M 67 125 L 98 125 L 98 155.917969 L 67 155.917969 Z M 67 125 " clip-rule="nonzero"/></clipPath><clipPath id="9b03c0f268"><path d="M 126 67 L 156.414062 67 L 156.414062 97 L 126 97 Z M 126 67 " clip-rule="nonzero"/></clipPath><clipPath id="e103f3271a"><path d="M 8.808594 67 L 39 67 L 39 97 L 8.808594 97 Z M 8.808594 67 " clip-rule="nonzero"/></clipPath></defs><g clip-path="url(#07301ae65e)"><path fill="#00332a" d="M 97.464844 23.28125 C 97.464844 31.550781 90.765625 38.25 82.496094 38.25 C 74.226562 38.25 67.527344 31.550781 67.527344 23.28125 C 67.527344 15.011719 74.226562 8.3125 82.496094 8.3125 C 90.765625 8.3125 97.464844 15.011719 97.464844 23.28125 " fill-opacity="1" fill-rule="nonzero"/></g><path fill="#00332a" d="M 71.21875 88.671875 L 71.21875 61.039062 C 71.21875 54.367188 77.199219 48.847656 84.105469 49.761719 C 87.335938 50.21875 89.863281 51.828125 91.707031 54.367188 L 104.59375 54.367188 C 102.527344 47.695312 97.699219 42.394531 91.25 39.636719 C 88.710938 41.007812 85.726562 41.703125 82.496094 41.703125 C 79.5 41.703125 76.515625 41.007812 73.980469 39.636719 C 65.460938 43.546875 59.46875 52.066406 59.46875 61.734375 L 59.46875 88.449219 C 61.3125 88.90625 62.007812 88.671875 71.21875 88.671875 " fill-opacity="1" fill-rule="nonzero"/><path fill="#00332a" d="M 105.523438 102.265625 L 105.523438 82.457031 C 105.523438 79.238281 102.984375 76.699219 99.765625 76.699219 C 96.546875 76.699219 94.011719 79.238281 94.011719 82.457031 L 94.011719 102.722656 C 94.011719 109.394531 88.03125 114.929688 81.109375 114 C 77.890625 113.542969 75.351562 111.933594 73.519531 109.394531 L 60.621094 109.394531 C 62.6875 116.082031 67.765625 121.601562 73.980469 124.140625 C 76.503906 122.753906 79.5 122.074219 82.730469 122.074219 C 85.726562 122.074219 88.710938 122.753906 91.25 124.140625 C 99.542969 120.453125 105.523438 111.933594 105.523438 102.265625 " fill-opacity="1" fill-rule="nonzero"/><g clip-path="url(#d0b4a87ada)"><path fill="#00332a" d="M 97.464844 140.71875 C 97.464844 148.988281 90.765625 155.6875 82.496094 155.6875 C 74.226562 155.6875 67.527344 148.988281 67.527344 140.71875 C 67.527344 132.449219 74.226562 125.75 82.496094 125.75 C 90.765625 125.75 97.464844 132.449219 97.464844 140.71875 " fill-opacity="1" fill-rule="nonzero"/></g><path fill="#00332a" d="M 124.636719 73.480469 C 120.949219 64.964844 112.429688 58.972656 102.761719 58.972656 L 76.046875 58.972656 C 75.589844 60.582031 75.824219 61.273438 75.824219 70.484375 L 103.457031 70.484375 C 110.128906 70.484375 115.648438 76.476562 114.734375 83.386719 C 114.277344 86.605469 112.667969 89.144531 110.128906 90.976562 L 110.128906 103.875 C 116.578125 102.03125 122.101562 97.203125 124.875 90.515625 C 123.488281 87.992188 122.792969 84.996094 122.792969 81.777344 C 122.570312 79.003906 123.25 76.019531 124.636719 73.480469 " fill-opacity="1" fill-rule="nonzero"/><g clip-path="url(#9b03c0f268)"><path fill="#00332a" d="M 156.183594 82 C 156.183594 90.269531 149.484375 96.96875 141.214844 96.96875 C 132.945312 96.96875 126.246094 90.269531 126.246094 82 C 126.246094 73.730469 132.945312 67.03125 141.214844 67.03125 C 149.484375 67.03125 156.183594 73.730469 156.183594 82 " fill-opacity="1" fill-rule="nonzero"/></g><path fill="#00332a" d="M 40.355469 90.515625 C 44.042969 99.046875 52.5625 104.789062 62.230469 104.789062 L 88.945312 104.789062 C 89.40625 102.960938 89.167969 102.488281 89.167969 93.277344 L 61.535156 93.277344 C 54.863281 93.277344 49.34375 87.296875 50.257812 80.390625 C 50.714844 77.160156 52.324219 74.632812 54.863281 72.789062 L 54.863281 59.886719 C 48.414062 61.96875 42.894531 66.796875 40.132812 73.246094 C 41.507812 75.785156 42.199219 78.769531 42.199219 82 C 42.421875 84.996094 41.742188 87.980469 40.355469 90.515625 " fill-opacity="1" fill-rule="nonzero"/><g clip-path="url(#e103f3271a)"><path fill="#00332a" d="M 38.746094 82 C 38.746094 90.269531 32.046875 96.96875 23.777344 96.96875 C 15.507812 96.96875 8.808594 90.269531 8.808594 82 C 8.808594 73.730469 15.507812 67.03125 23.777344 67.03125 C 32.046875 67.03125 38.746094 73.730469 38.746094 82 " fill-opacity="1" fill-rule="nonzero"/></g></svg>