<svg xmlns="http://www.w3.org/2000/svg" xmlns:xlink="http://www.w3.org/1999/xlink" width="220" zoomAndPan="magnify" viewBox="0 0 165 165.000002" height="220" preserveAspectRatio="xMidYMid meet" version="1.0"><defs><clipPath id="84903cbfcc"><path d="M 8.585938 8.085938 L 156.191406 8.085938 L 156.191406 155.691406 L 8.585938 155.691406 Z M 8.585938 8.085938 " clip-rule="nonzero"/></clipPath></defs><g clip-path="url(#84903cbfcc)"><path fill="#00332a" d="M 26.582031 88.183594 L 26.582031 81.835938 C 26.582031 81.339844 26.632812 80.847656 26.730469 80.363281 C 26.828125 79.878906 26.972656 79.40625 27.160156 78.953125 C 27.351562 78.496094 27.582031 78.058594 27.859375 77.648438 C 28.132812 77.238281 28.445312 76.855469 28.796875 76.507812 C 29.144531 76.15625 29.527344 75.84375 29.9375 75.570312 C 30.347656 75.292969 30.78125 75.0625 31.238281 74.871094 C 31.695312 74.683594 32.167969 74.539062 32.652344 74.441406 C 33.136719 74.34375 33.628906 74.296875 34.121094 74.292969 L 130.894531 74.292969 C 131.390625 74.296875 131.878906 74.34375 132.363281 74.441406 C 132.847656 74.539062 133.320312 74.683594 133.777344 74.875 C 134.234375 75.0625 134.667969 75.296875 135.078125 75.570312 C 135.488281 75.847656 135.871094 76.160156 136.21875 76.507812 C 136.570312 76.859375 136.882812 77.238281 137.15625 77.652344 C 137.433594 78.0625 137.664062 78.496094 137.855469 78.953125 C 138.046875 79.410156 138.1875 79.878906 138.285156 80.363281 C 138.382812 80.851562 138.433594 81.339844 138.433594 81.835938 L 138.433594 88.183594 C 138.433594 88.382812 138.398438 88.574219 138.320312 88.761719 C 138.242188 88.945312 138.132812 89.109375 137.992188 89.25 C 137.851562 89.390625 137.6875 89.5 137.503906 89.578125 C 137.316406 89.652344 137.125 89.691406 136.925781 89.691406 C 136.726562 89.691406 136.53125 89.652344 136.347656 89.578125 C 136.164062 89.5 136 89.390625 135.859375 89.25 C 135.714844 89.109375 135.609375 88.945312 135.53125 88.761719 C 135.453125 88.574219 135.417969 88.382812 135.417969 88.183594 L 135.417969 81.835938 C 135.414062 81.539062 135.386719 81.242188 135.328125 80.953125 C 135.269531 80.660156 135.183594 80.378906 135.070312 80.105469 C 134.957031 79.832031 134.816406 79.570312 134.652344 79.324219 C 134.488281 79.078125 134.300781 78.847656 134.089844 78.640625 C 133.878906 78.429688 133.652344 78.242188 133.40625 78.078125 C 133.160156 77.914062 132.898438 77.773438 132.625 77.660156 C 132.351562 77.546875 132.066406 77.460938 131.777344 77.402344 C 131.484375 77.34375 131.191406 77.3125 130.894531 77.3125 L 84.015625 77.3125 L 84.015625 88.183594 C 83.984375 90.164062 81.03125 90.171875 81.003906 88.183594 L 81.003906 77.3125 L 34.121094 77.3125 C 33.824219 77.3125 33.53125 77.34375 33.242188 77.402344 C 32.949219 77.460938 32.667969 77.546875 32.394531 77.660156 C 32.121094 77.777344 31.859375 77.914062 31.613281 78.078125 C 31.367188 78.246094 31.140625 78.433594 30.929688 78.640625 C 30.71875 78.851562 30.53125 79.078125 30.367188 79.324219 C 30.203125 79.574219 30.0625 79.832031 29.949219 80.105469 C 29.835938 80.378906 29.75 80.664062 29.691406 80.953125 C 29.632812 81.242188 29.601562 81.539062 29.601562 81.835938 L 29.601562 88.183594 C 29.59375 90.152344 26.605469 90.171875 26.582031 88.183594 Z M 34.582031 134.78125 C 32.960938 135.5 26.722656 137.75 26.582031 134.722656 C 26.582031 134.523438 26.621094 134.332031 26.699219 134.144531 C 26.773438 133.960938 26.882812 133.796875 27.023438 133.65625 C 27.167969 133.515625 27.328125 133.40625 27.515625 133.328125 C 27.699219 133.25 27.890625 133.214844 28.09375 133.214844 C 34.742188 133.300781 40.539062 127.554688 40.449219 120.855469 L 40.449219 116.5 C 40.507812 105.59375 26.921875 100.019531 19.367188 107.777344 C 18.207031 108.929688 17.3125 110.261719 16.683594 111.773438 C 16.050781 113.285156 15.738281 114.863281 15.734375 116.5 C 15.683594 119.984375 15.5 124.335938 17.535156 127.25 C 18.738281 129.226562 20.371094 130.753906 22.425781 131.824219 C 22.703125 131.96875 22.914062 132.179688 23.0625 132.457031 C 23.210938 132.734375 23.265625 133.027344 23.226562 133.339844 C 23.191406 133.652344 23.066406 133.925781 22.859375 134.160156 C 22.652344 134.394531 22.394531 134.550781 22.089844 134.625 C 19.078125 135.566406 16.429688 137.125 14.144531 139.304688 C 11.386719 142.113281 8.394531 146.035156 8.648438 150.1875 C 9.046875 153.355469 11.925781 156.011719 15.1875 155.90625 L 40.996094 155.90625 C 43.230469 155.898438 45.109375 154.929688 46.382812 153.101562 C 50.96875 146.511719 40.765625 136.453125 34.582031 134.78125 Z M 88.992188 134.78125 C 87.375 135.5 81.136719 137.75 81.003906 134.722656 C 81.003906 134.523438 81.042969 134.332031 81.117188 134.144531 C 81.195312 133.960938 81.304688 133.796875 81.445312 133.65625 C 81.585938 133.515625 81.75 133.40625 81.933594 133.328125 C 82.121094 133.25 82.3125 133.214844 82.511719 133.214844 C 89.15625 133.300781 94.949219 127.554688 94.863281 120.855469 L 94.863281 116.5 C 94.929688 105.59375 81.335938 100.019531 73.78125 107.777344 C 72.621094 108.929688 71.730469 110.265625 71.101562 111.777344 C 70.472656 113.289062 70.15625 114.863281 70.15625 116.5 C 70.105469 119.984375 69.910156 124.335938 71.945312 127.25 C 73.15625 129.226562 74.789062 130.753906 76.84375 131.824219 C 77.125 131.96875 77.335938 132.179688 77.480469 132.457031 C 77.628906 132.734375 77.683594 133.03125 77.644531 133.34375 C 77.605469 133.652344 77.484375 133.925781 77.273438 134.164062 C 77.066406 134.398438 76.808594 134.550781 76.503906 134.625 C 73.492188 135.566406 70.847656 137.125 68.566406 139.304688 C 65.796875 142.113281 62.816406 146.035156 63.058594 150.1875 C 63.46875 153.347656 66.339844 156.011719 69.601562 155.90625 L 95.417969 155.90625 C 97.644531 155.898438 99.523438 154.929688 100.804688 153.101562 C 105.382812 146.511719 95.1875 136.453125 88.992188 134.78125 Z M 44.332031 38.972656 C 42.089844 35.953125 42.089844 31.980469 44.332031 28.953125 C 57.953125 9.996094 82.371094 1.835938 103.246094 13.464844 C 109.875 17.09375 115.800781 22.398438 120.683594 28.953125 C 121.230469 29.675781 121.644531 30.464844 121.933594 31.320312 C 122.21875 32.175781 122.363281 33.058594 122.363281 33.960938 C 122.363281 34.867188 122.21875 35.746094 121.933594 36.605469 C 121.644531 37.460938 121.230469 38.25 120.683594 38.972656 C 115.800781 45.535156 109.875 50.839844 103.246094 54.457031 C 90.6875 61.582031 74.328125 61.582031 61.773438 54.457031 C 55.144531 50.839844 49.214844 45.535156 44.332031 38.972656 Z M 69.742188 49.550781 C 80.945312 60.820312 100.558594 52.882812 100.566406 36.78125 C 100.425781 35.070312 100.457031 29.425781 97.769531 30.195312 C 97.578125 30.257812 97.410156 30.355469 97.257812 30.484375 C 97.105469 30.617188 96.984375 30.769531 96.894531 30.949219 C 96.804688 31.125 96.753906 31.316406 96.738281 31.515625 C 96.722656 31.714844 96.746094 31.90625 96.808594 32.097656 C 97.304688 33.617188 97.554688 35.179688 97.546875 36.78125 C 97.59375 50.167969 81.160156 56.808594 71.871094 47.421875 C 62.585938 38.03125 69.128906 21.703125 82.511719 21.746094 C 83.40625 21.742188 84.289062 21.816406 85.167969 21.976562 C 85.363281 22.011719 85.5625 22.007812 85.753906 21.964844 C 85.949219 21.921875 86.128906 21.84375 86.292969 21.730469 C 86.457031 21.617188 86.59375 21.476562 86.699219 21.308594 C 86.808594 21.140625 86.878906 20.957031 86.914062 20.761719 C 87.175781 19.066406 85.359375 18.890625 84.109375 18.800781 C 67.277344 17.359375 57.941406 37.742188 69.742188 49.550781 Z M 143.414062 134.78125 C 141.792969 135.5 135.558594 137.75 135.417969 134.722656 C 135.417969 134.523438 135.453125 134.332031 135.53125 134.144531 C 135.609375 133.960938 135.714844 133.796875 135.859375 133.65625 C 136 133.515625 136.164062 133.40625 136.347656 133.328125 C 136.53125 133.25 136.726562 133.214844 136.925781 133.214844 C 143.578125 133.300781 149.371094 127.554688 149.28125 120.855469 L 149.28125 116.5 C 149.339844 105.59375 135.757812 100.019531 128.203125 107.777344 C 127.039062 108.929688 126.144531 110.261719 125.515625 111.773438 C 124.886719 113.285156 124.570312 114.863281 124.570312 116.5 C 124.515625 119.984375 124.332031 124.335938 126.359375 127.25 C 127.570312 129.226562 129.203125 130.75 131.257812 131.824219 C 131.535156 131.96875 131.75 132.179688 131.894531 132.457031 C 132.042969 132.734375 132.097656 133.027344 132.058594 133.339844 C 132.023438 133.652344 131.902344 133.925781 131.695312 134.160156 C 131.484375 134.394531 131.230469 134.550781 130.925781 134.625 C 127.910156 135.566406 125.261719 137.125 122.976562 139.304688 C 120.21875 142.113281 117.230469 146.035156 117.472656 150.1875 C 117.878906 153.355469 120.757812 156.011719 124.019531 155.90625 L 149.828125 155.90625 C 152.0625 155.898438 153.945312 154.929688 155.214844 153.101562 C 159.804688 146.511719 149.601562 136.453125 143.414062 134.78125 Z M 143.414062 134.78125 " fill-opacity="1" fill-rule="evenodd"/></g></svg>