<svg xmlns="http://www.w3.org/2000/svg" xmlns:xlink="http://www.w3.org/1999/xlink" width="220" zoomAndPan="magnify" viewBox="0 0 165 165.000002" height="220" preserveAspectRatio="xMidYMid meet" version="1.0"><defs><clipPath id="35470ba8bb"><path d="M 7.566406 7.070312 L 157.410156 7.070312 L 157.410156 156.914062 L 7.566406 156.914062 Z M 7.566406 7.070312 " clip-rule="nonzero"/></clipPath></defs><g clip-path="url(#35470ba8bb)"><path fill="#00332a" d="M 71.550781 156.925781 L 67.121094 156.925781 C 64.722656 156.925781 62.777344 154.984375 62.777344 152.578125 C 62.777344 139.535156 46.996094 133 37.773438 142.222656 C 36.078125 143.917969 33.328125 143.917969 31.632812 142.222656 L 22.269531 132.867188 C 20.574219 131.171875 20.574219 128.414062 22.269531 126.71875 C 31.484375 117.503906 24.949219 101.714844 11.914062 101.714844 C 9.515625 101.714844 7.566406 99.769531 7.566406 97.371094 L 7.566406 92.9375 L 23.246094 92.9375 C 23.277344 96.632812 24.488281 99.890625 26.242188 101.933594 C 27.695312 103.625 29.523438 104.546875 31.457031 104.546875 C 33.386719 104.546875 35.21875 103.625 36.671875 101.933594 C 38.421875 99.890625 39.636719 96.632812 39.667969 92.9375 L 47.820312 92.9375 C 48.875 105.527344 58.960938 115.621094 71.550781 116.679688 L 71.550781 127.148438 C 71.550781 128.355469 72.53125 129.335938 73.738281 129.335938 C 73.839844 129.335938 73.9375 129.328125 74.035156 129.3125 L 74.039062 129.3125 C 74.597656 129.238281 75.175781 129.199219 75.769531 129.199219 C 77.945312 129.199219 79.933594 129.726562 81.367188 130.628906 C 82.386719 131.273438 83.15625 132.0625 83.15625 133.039062 C 83.15625 134.015625 82.386719 134.804688 81.367188 135.449219 C 79.933594 136.351562 77.945312 136.882812 75.769531 136.882812 C 75.175781 136.882812 74.597656 136.839844 74.039062 136.765625 L 74.035156 136.765625 C 73.9375 136.75 73.839844 136.746094 73.738281 136.746094 C 72.53125 136.746094 71.550781 137.722656 71.550781 138.929688 Z M 75.921875 116.679688 C 88.597656 115.617188 98.746094 105.394531 99.683594 92.683594 L 110.046875 92.683594 C 110.011719 91.132812 109.992188 89.167969 109.992188 88.726562 C 109.992188 83.457031 112.699219 79.15625 116.019531 79.15625 C 119.339844 79.15625 122.046875 83.457031 122.046875 88.726562 C 122.046875 89.167969 122.027344 91.132812 121.992188 92.683594 L 139.910156 92.683594 L 139.910156 97.371094 C 139.910156 99.769531 137.96875 101.714844 135.5625 101.714844 C 122.535156 101.714844 115.992188 117.503906 125.207031 126.71875 C 126.902344 128.414062 126.902344 131.171875 125.207031 132.867188 L 115.851562 142.222656 C 114.15625 143.917969 111.398438 143.917969 109.703125 142.222656 C 100.488281 133.007812 84.699219 139.550781 84.699219 152.578125 C 84.699219 154.984375 82.753906 156.925781 80.355469 156.925781 L 75.921875 156.925781 L 75.921875 141.25 C 79.613281 141.21875 82.871094 140.003906 84.914062 138.253906 C 86.605469 136.800781 87.527344 134.972656 87.527344 133.039062 C 87.527344 131.105469 86.605469 129.277344 84.914062 127.824219 C 82.871094 126.074219 79.613281 124.859375 75.921875 124.828125 Z M 7.566406 88.570312 L 7.566406 84.136719 C 7.566406 81.738281 9.515625 79.792969 11.914062 79.792969 C 24.949219 79.792969 31.484375 64.003906 22.269531 54.789062 C 20.574219 53.09375 20.574219 50.34375 22.269531 48.648438 L 31.632812 39.285156 C 33.328125 37.589844 36.078125 37.589844 37.773438 39.285156 C 46.988281 48.5 62.777344 41.964844 62.777344 28.929688 C 62.777344 26.53125 64.722656 24.582031 67.121094 24.582031 L 71.808594 24.582031 L 71.808594 42.449219 C 71.773438 42.449219 71.742188 42.449219 71.707031 42.449219 C 66.433594 42.449219 62.136719 45.15625 62.136719 48.476562 C 62.136719 51.796875 66.433594 54.503906 71.707031 54.503906 C 71.742188 54.503906 71.773438 54.503906 71.808594 54.503906 L 71.808594 64.816406 C 59.097656 65.757812 48.886719 75.894531 47.820312 88.570312 L 37.347656 88.570312 C 36.140625 88.570312 35.160156 89.546875 35.160156 90.753906 C 35.160156 90.855469 35.167969 90.953125 35.179688 91.050781 L 35.183594 91.054688 C 35.257812 91.613281 35.296875 92.195312 35.296875 92.789062 C 35.296875 94.96875 34.769531 96.953125 33.867188 98.386719 C 33.222656 99.40625 32.433594 100.175781 31.457031 100.175781 C 30.480469 100.175781 29.691406 99.40625 29.046875 98.386719 C 28.144531 96.953125 27.613281 94.96875 27.613281 92.789062 C 27.613281 92.195312 27.65625 91.613281 27.730469 91.054688 L 27.730469 91.050781 C 27.746094 90.953125 27.753906 90.855469 27.753906 90.753906 C 27.753906 89.546875 26.773438 88.570312 25.566406 88.570312 Z M 93.179688 47.304688 L 93.179688 36.914062 C 91.882812 36.964844 89.746094 36.992188 89.222656 36.992188 C 83.949219 36.992188 79.648438 34.28125 79.648438 30.964844 C 79.648438 27.644531 83.949219 24.9375 89.222656 24.9375 C 89.746094 24.9375 91.882812 24.964844 93.179688 25.015625 L 93.179688 7.070312 L 97.867188 7.070312 C 100.265625 7.070312 102.210938 9.015625 102.210938 11.417969 C 102.210938 24.453125 118 30.988281 127.214844 21.773438 C 128.910156 20.074219 131.667969 20.074219 133.363281 21.773438 L 142.71875 31.136719 C 144.417969 32.832031 144.417969 35.582031 142.71875 37.277344 C 133.503906 46.492188 140.046875 62.28125 153.074219 62.28125 C 155.484375 62.28125 157.421875 64.226562 157.421875 66.625 L 157.421875 71.3125 L 139.558594 71.3125 C 139.558594 71.277344 139.558594 71.246094 139.558594 71.214844 C 139.558594 65.945312 136.851562 61.640625 133.53125 61.640625 C 130.210938 61.640625 127.503906 65.945312 127.503906 71.214844 C 127.503906 71.246094 127.503906 71.277344 127.503906 71.3125 L 117.195312 71.3125 C 116.25 58.515625 105.972656 48.246094 93.179688 47.304688 Z M 73.742188 108.1875 C 64.140625 108.1875 56.3125 100.355469 56.3125 90.757812 C 56.3125 81.15625 64.140625 73.332031 73.742188 73.332031 C 83.339844 73.332031 91.167969 81.15625 91.167969 90.757812 C 91.167969 100.355469 83.339844 108.1875 73.742188 108.1875 Z M 73.742188 108.1875 " fill-opacity="1" fill-rule="evenodd"/></g></svg>